<svg width="48" height="48" viewBox="0 0 48 48" fill="none" xmlns="http://www.w3.org/2000/svg">
<g clip-path="url(#clip0_208_6)">
<path d="M31.1531 12.7703H16.8469C14.5634 12.7703 12.7056 14.6281 12.7056 16.9116V31.2178C12.7056 33.5013 14.5634 35.3596 16.8469 35.3596H31.1531C33.4366 35.3596 35.2949 33.5018 35.2949 31.2178V16.9116C35.2949 14.6281 33.4371 12.7703 31.1531 12.7703ZM24 31.5012C19.8999 31.5012 16.564 28.1653 16.564 24.0647C16.564 19.9646 19.8999 16.6287 24 16.6287C28.1006 16.6287 31.4365 19.9646 31.4365 24.0647C31.4365 28.1648 28.1001 31.5012 24 31.5012ZM31.6756 18.1662C30.705 18.1662 29.9156 17.3769 29.9156 16.4068C29.9156 15.4367 30.705 14.6474 31.6756 14.6474C32.6456 14.6474 33.435 15.4367 33.435 16.4068C33.435 17.3769 32.6456 18.1662 31.6756 18.1662Z" fill="#1A1918"/>
<path d="M24 19.771C21.6331 19.771 19.7058 21.6973 19.7058 24.0642C19.7058 26.4321 21.6331 28.3589 24 28.3589C26.368 28.3589 28.2937 26.4321 28.2937 24.0642C28.2937 21.6978 26.3674 19.771 24 19.771Z" fill="#1A1918"/>
<path d="M24 0C10.7457 0 0 10.7457 0 24C0 37.2543 10.7457 48 24 48C37.2543 48 48 37.2543 48 24C48 10.7457 37.2543 0 24 0ZM38.4367 31.2178C38.4367 35.2345 35.1698 38.5014 31.1531 38.5014H16.8469C12.8308 38.5014 9.56331 35.2345 9.56331 31.2178V16.9116C9.56331 12.8955 12.8308 9.62802 16.8469 9.62802H31.1531C35.1698 9.62802 38.4367 12.8955 38.4367 16.9116V31.2178Z" fill="#1A1918"/>
</g>
<defs>
<clipPath id="clip0_208_6">
<rect width="48" height="48" fill="white"/>
</clipPath>
</defs>
</svg>
