<svg width="48" height="48" viewBox="0 0 48 48" fill="none" xmlns="http://www.w3.org/2000/svg">
<g clip-path="url(#clip0_208_4)">
<path d="M24 4.91142e-05C10.7451 4.91142e-05 5.53131e-05 10.7451 5.53131e-05 24C5.53131e-05 37.2549 10.7451 47.9999 24 47.9999C37.2549 47.9999 48.0001 37.2549 48.0001 24C48 10.7451 37.2547 4.91142e-05 24 4.91142e-05ZM17.5968 35.6029H12.3273V18.5788H17.5968V35.6029ZM14.9369 16.3494C13.216 16.3494 11.8209 14.9429 11.8209 13.2082C11.8209 11.4733 13.2162 10.0669 14.9369 10.0669C16.6577 10.0669 18.0528 11.4733 18.0528 13.2082C18.0529 14.943 16.6578 16.3494 14.9369 16.3494ZM37.344 35.6029H32.1001V26.6667C32.1001 24.2157 31.1691 22.8476 29.2311 22.8476C27.1219 22.8476 26.02 24.2725 26.02 26.6667V35.6029H20.966V18.5788H26.02V20.8717C26.02 20.8717 27.5402 18.0596 31.15 18.0596C34.7599 18.0596 37.3441 20.2637 37.3441 24.8235L37.344 35.6029Z" fill="url(#paint0_linear_208_4)"/>
</g>
<defs>
<linearGradient id="paint0_linear_208_4" x1="7.02947" y1="7.02946" x2="40.9705" y2="40.9705" gradientUnits="userSpaceOnUse">
<stop stop-color="#1A1A18"/>
<stop offset="1" stop-color="#1A1A18"/>
</linearGradient>
<clipPath id="clip0_208_4">
<rect width="48" height="48" fill="white"/>
</clipPath>
</defs>
</svg>
